<svg xmlns="http://www.w3.org/2000/svg" xmlns:xlink="http://www.w3.org/1999/xlink" width="350" zoomAndPan="magnify" viewBox="0 0 262.5 262.500001" height="350" preserveAspectRatio="xMidYMid meet" version="1.0"><defs><g/><clipPath id="id1"><path d="M 130 111 L 133 111 L 133 143.199219 L 130 143.199219 Z M 130 111 " clip-rule="nonzero"/></clipPath><clipPath id="id2"><path d="M 120 74.949219 L 143 74.949219 L 143 114 L 120 114 Z M 120 74.949219 " clip-rule="nonzero"/></clipPath><clipPath id="id3"><path d="M 140 101 L 164.128906 101 L 164.128906 125 L 140 125 Z M 140 101 " clip-rule="nonzero"/></clipPath><clipPath id="id4"><path d="M 99.628906 101 L 124 101 L 124 125 L 99.628906 125 Z M 99.628906 101 " clip-rule="nonzero"/></clipPath></defs><g clip-path="url(#id1)"><path fill="#ffffff" d="M 131.871094 143.179688 C 131.28125 143.179688 130.792969 142.691406 130.792969 142.097656 L 130.792969 112.164062 C 130.792969 111.570312 131.28125 111.082031 131.871094 111.082031 C 132.464844 111.082031 132.953125 111.570312 132.953125 112.164062 L 132.953125 142.097656 C 132.953125 142.691406 132.464844 143.179688 131.871094 143.179688 Z M 131.871094 143.179688 " fill-opacity="1" fill-rule="nonzero"/></g><g clip-path="url(#id2)"><path fill="#ffffff" d="M 131.871094 113.492188 C 131.765625 113.492188 131.644531 113.476562 131.539062 113.445312 C 131.433594 113.417969 128.800781 112.714844 126.171875 110.714844 C 122.628906 108 120.761719 104.199219 120.761719 99.726562 C 120.761719 89.5 130.382812 76.082031 130.792969 75.519531 C 131.035156 75.167969 131.445312 74.96875 131.859375 74.96875 C 132.285156 74.96875 132.679688 75.167969 132.921875 75.519531 C 133.332031 76.082031 142.953125 89.515625 142.953125 99.726562 C 142.953125 104.210938 141.085938 108.011719 137.542969 110.714844 C 134.914062 112.730469 132.296875 113.433594 132.175781 113.445312 C 132.101562 113.476562 131.980469 113.492188 131.871094 113.492188 Z M 131.871094 78.632812 C 129.378906 82.417969 123.421875 92.261719 123.421875 99.710938 C 123.421875 107.570312 130.246094 110.242188 131.871094 110.777344 C 133.5 110.257812 140.324219 107.570312 140.324219 99.710938 C 140.324219 92.277344 134.367188 82.417969 131.871094 78.632812 Z M 131.871094 78.632812 " fill-opacity="1" fill-rule="nonzero"/></g><g clip-path="url(#id3)"><path fill="#ffffff" d="M 148.425781 125 C 145.902344 125 143.652344 124.191406 142.316406 123.398438 C 142.117188 123.292969 141.964844 123.125 141.84375 122.925781 C 140.28125 120.253906 138.605469 113.90625 143.503906 109.003906 C 149.203125 103.28125 162.003906 101.191406 162.550781 101.097656 C 162.976562 101.039062 163.386719 101.175781 163.691406 101.464844 C 163.992188 101.769531 164.128906 102.199219 164.054688 102.609375 C 163.964844 103.160156 161.878906 116.011719 156.179688 121.734375 C 153.746094 124.191406 150.949219 125 148.425781 125 Z M 143.972656 121.277344 C 145.265625 121.917969 150.238281 123.980469 154.324219 119.871094 C 158.21875 115.964844 160.316406 107.785156 161.089844 104.089844 C 157.410156 104.871094 149.261719 106.976562 145.371094 110.882812 C 141.296875 114.972656 143.351562 119.996094 143.972656 121.277344 Z M 143.972656 121.277344 " fill-opacity="1" fill-rule="nonzero"/></g><path fill="#ffffff" d="M 131.871094 134.496094 C 131.597656 134.496094 131.324219 134.386719 131.113281 134.175781 C 130.6875 133.746094 130.6875 133.0625 131.113281 132.632812 L 142.226562 121.476562 C 142.652344 121.046875 143.335938 121.046875 143.761719 121.476562 C 144.1875 121.902344 144.1875 122.589844 143.761719 123.015625 L 132.632812 134.191406 C 132.421875 134.386719 132.148438 134.496094 131.871094 134.496094 Z M 131.871094 134.496094 " fill-opacity="1" fill-rule="nonzero"/><g clip-path="url(#id4)"><path fill="#ffffff" d="M 115.320312 125 C 112.796875 125 109.996094 124.191406 107.566406 121.734375 C 101.863281 116.011719 99.78125 103.160156 99.691406 102.609375 C 99.628906 102.183594 99.765625 101.769531 100.054688 101.464844 C 100.359375 101.160156 100.785156 101.023438 101.195312 101.097656 C 101.742188 101.191406 114.542969 103.28125 120.242188 109.003906 C 125.136719 113.921875 123.464844 120.253906 121.902344 122.925781 C 121.792969 123.125 121.628906 123.277344 121.429688 123.398438 C 120.089844 124.191406 117.84375 125 115.320312 125 Z M 102.671875 104.089844 C 103.445312 107.785156 105.542969 115.964844 109.433594 119.871094 C 113.507812 123.964844 118.511719 121.902344 119.789062 121.277344 C 120.425781 119.980469 122.476562 114.988281 118.390625 110.882812 C 114.496094 106.976562 106.347656 104.871094 102.671875 104.089844 Z M 102.671875 104.089844 " fill-opacity="1" fill-rule="nonzero"/></g><path fill="#ffffff" d="M 131.871094 134.496094 C 131.597656 134.496094 131.324219 134.386719 131.113281 134.175781 L 120 123.015625 C 119.574219 122.589844 119.574219 121.902344 120 121.476562 C 120.425781 121.046875 121.109375 121.046875 121.535156 121.476562 L 132.648438 132.632812 C 133.074219 133.0625 133.074219 133.746094 132.648438 134.175781 C 132.421875 134.386719 132.148438 134.496094 131.871094 134.496094 Z M 131.871094 134.496094 " fill-opacity="1" fill-rule="nonzero"/><path fill="#ffffff" d="M 131.871094 103.769531 C 131.597656 103.769531 131.324219 103.664062 131.113281 103.449219 L 126.066406 98.382812 C 125.640625 97.953125 125.640625 97.269531 126.066406 96.839844 C 126.492188 96.414062 127.175781 96.414062 127.601562 96.839844 L 131.886719 101.144531 L 136.175781 96.839844 C 136.601562 96.414062 137.285156 96.414062 137.710938 96.839844 C 138.136719 97.269531 138.136719 97.953125 137.710938 98.382812 L 132.632812 103.464844 C 132.421875 103.664062 132.148438 103.769531 131.871094 103.769531 Z M 131.871094 103.769531 " fill-opacity="1" fill-rule="nonzero"/><path fill="#ffffff" d="M 131.871094 96.414062 C 131.597656 96.414062 131.324219 96.304688 131.113281 96.09375 L 128.027344 92.996094 C 127.601562 92.566406 127.601562 91.878906 128.027344 91.453125 C 128.453125 91.023438 129.136719 91.023438 129.5625 91.453125 L 131.871094 93.804688 L 134.199219 91.46875 C 134.625 91.039062 135.308594 91.039062 135.734375 91.46875 C 136.160156 91.894531 136.160156 92.582031 135.734375 93.007812 L 132.632812 96.09375 C 132.421875 96.304688 132.148438 96.414062 131.871094 96.414062 Z M 131.871094 96.414062 " fill-opacity="1" fill-rule="nonzero"/><path fill="#ffffff" d="M 131.871094 113.445312 C 131.28125 113.445312 130.792969 112.957031 130.792969 112.363281 L 130.792969 88.660156 C 130.792969 88.0625 131.28125 87.574219 131.871094 87.574219 C 132.464844 87.574219 132.953125 88.0625 132.953125 88.660156 L 132.953125 112.378906 C 132.953125 112.972656 132.464844 113.445312 131.871094 113.445312 Z M 131.871094 113.445312 " fill-opacity="1" fill-rule="nonzero"/><path fill="#ffffff" d="M 115.121094 117.675781 L 109.90625 117.675781 C 109.3125 117.675781 108.828125 117.1875 108.828125 116.589844 C 108.828125 115.996094 109.3125 115.507812 109.90625 115.507812 L 114.042969 115.507812 L 114.042969 111.355469 C 114.042969 110.761719 114.527344 110.273438 115.121094 110.273438 C 115.714844 110.273438 116.199219 110.761719 116.199219 111.355469 L 116.199219 116.589844 C 116.199219 117.203125 115.714844 117.675781 115.121094 117.675781 Z M 115.121094 117.675781 " fill-opacity="1" fill-rule="nonzero"/><path fill="#ffffff" d="M 120.761719 123.335938 C 120.488281 123.335938 120.214844 123.230469 120 123.015625 L 107.125 110.089844 C 106.699219 109.660156 106.699219 108.976562 107.125 108.546875 C 107.550781 108.121094 108.234375 108.121094 108.660156 108.546875 L 121.535156 121.476562 C 121.960938 121.902344 121.960938 122.589844 121.535156 123.015625 C 121.308594 123.230469 121.035156 123.335938 120.761719 123.335938 Z M 120.761719 123.335938 " fill-opacity="1" fill-rule="nonzero"/><path fill="#ffffff" d="M 153.414062 117.675781 L 148.199219 117.675781 C 147.605469 117.675781 147.121094 117.1875 147.121094 116.589844 L 147.121094 111.355469 C 147.121094 110.761719 147.605469 110.273438 148.199219 110.273438 C 148.792969 110.273438 149.277344 110.761719 149.277344 111.355469 L 149.277344 115.507812 L 153.414062 115.507812 C 154.007812 115.507812 154.492188 115.996094 154.492188 116.589844 C 154.492188 117.203125 154.007812 117.675781 153.414062 117.675781 Z M 153.414062 117.675781 " fill-opacity="1" fill-rule="nonzero"/><path fill="#ffffff" d="M 142.984375 123.335938 C 142.710938 123.335938 142.4375 123.230469 142.242188 123.03125 C 141.816406 122.621094 141.800781 121.933594 142.210938 121.507812 L 154.660156 108.578125 C 155.070312 108.152344 155.753906 108.136719 156.179688 108.546875 C 156.605469 108.960938 156.621094 109.648438 156.210938 110.074219 L 143.761719 123.003906 C 143.546875 123.230469 143.273438 123.335938 142.984375 123.335938 Z M 142.984375 123.335938 " fill-opacity="1" fill-rule="nonzero"/><g fill="#ffffff" fill-opacity="1"><g transform="translate(94.461585, 163.698022)"><g><path d="M 10.328125 0 L 7.078125 -4.90625 L 5.046875 -4.90625 L 5.046875 0 L 2 0 L 2 -15.453125 L 6.671875 -15.453125 C 8.597656 -15.453125 10.085938 -14.984375 11.140625 -14.046875 C 12.191406 -13.117188 12.71875 -11.851562 12.71875 -10.25 C 12.71875 -9.289062 12.519531 -8.394531 12.125 -7.5625 C 11.726562 -6.738281 11.117188 -6.085938 10.296875 -5.609375 L 13.875 0 Z M 5.046875 -7.859375 L 7.203125 -7.859375 C 8.023438 -7.859375 8.625 -8.097656 9 -8.578125 C 9.382812 -9.054688 9.578125 -9.578125 9.578125 -10.140625 C 9.578125 -10.703125 9.414062 -11.238281 9.09375 -11.75 C 8.769531 -12.257812 8.144531 -12.515625 7.21875 -12.515625 L 5.046875 -12.515625 Z M 5.046875 -7.859375 "/></g></g></g><g fill="#ffffff" fill-opacity="1"><g transform="translate(108.867677, 163.698022)"><g><path d="M 6.09375 -2.25 C 6.675781 -2.25 7.285156 -2.453125 7.921875 -2.859375 L 9.21875 -0.671875 C 8.71875 -0.390625 8.1875 -0.164062 7.625 0 C 7.0625 0.164062 6.53125 0.25 6.03125 0.25 C 4.9375 0.25 3.992188 0.046875 3.203125 -0.359375 C 2.410156 -0.773438 1.8125 -1.359375 1.40625 -2.109375 C 1 -2.859375 0.796875 -3.71875 0.796875 -4.6875 C 0.796875 -5.582031 1.03125 -6.40625 1.5 -7.15625 C 1.96875 -7.914062 2.609375 -8.515625 3.421875 -8.953125 C 4.234375 -9.398438 5.125 -9.625 6.09375 -9.625 C 7.40625 -9.625 8.484375 -9.238281 9.328125 -8.46875 C 10.179688 -7.695312 10.734375 -6.597656 10.984375 -5.171875 L 4.265625 -3.03125 C 4.710938 -2.507812 5.320312 -2.25 6.09375 -2.25 Z M 5.859375 -7.328125 C 5.203125 -7.328125 4.675781 -7.101562 4.28125 -6.65625 C 3.894531 -6.207031 3.703125 -5.601562 3.703125 -4.84375 L 3.703125 -4.65625 L 7.734375 -6.03125 C 7.429688 -6.894531 6.804688 -7.328125 5.859375 -7.328125 Z M 5.859375 -7.328125 "/></g></g></g><g fill="#ffffff" fill-opacity="1"><g transform="translate(120.480756, 163.698022)"><g><path d="M 9.296875 -0.8125 C 8.890625 -0.5 8.378906 -0.242188 7.765625 -0.046875 C 7.160156 0.148438 6.566406 0.25 5.984375 0.25 C 4.390625 0.25 3.125 -0.175781 2.1875 -1.03125 C 1.257812 -1.894531 0.796875 -3.082031 0.796875 -4.59375 C 0.796875 -5.570312 1.019531 -6.429688 1.46875 -7.171875 C 1.925781 -7.910156 2.523438 -8.46875 3.265625 -8.84375 C 4.015625 -9.226562 4.816406 -9.421875 5.671875 -9.421875 C 7.191406 -9.421875 8.429688 -9.019531 9.390625 -8.21875 L 7.953125 -6.328125 C 7.359375 -6.796875 6.6875 -7.03125 5.9375 -7.03125 C 5.320312 -7.03125 4.800781 -6.800781 4.375 -6.34375 C 3.945312 -5.882812 3.734375 -5.300781 3.734375 -4.59375 C 3.734375 -3.894531 3.960938 -3.3125 4.421875 -2.84375 C 4.890625 -2.375 5.492188 -2.140625 6.234375 -2.140625 C 6.878906 -2.140625 7.410156 -2.316406 7.828125 -2.671875 Z M 9.296875 -0.8125 "/></g></g></g><g fill="#ffffff" fill-opacity="1"><g transform="translate(130.539835, 163.698022)"><g><path d="M 11 -9.171875 L 5.078125 4.40625 L 2.25 4.40625 L 4.453125 -0.484375 L 0.203125 -9.171875 L 3.5 -9.171875 L 5.921875 -3.765625 L 8.359375 -9.171875 Z M 11 -9.171875 "/></g></g></g><g fill="#ffffff" fill-opacity="1"><g transform="translate(141.753919, 163.698022)"><g><path d="M 9.296875 -0.8125 C 8.890625 -0.5 8.378906 -0.242188 7.765625 -0.046875 C 7.160156 0.148438 6.566406 0.25 5.984375 0.25 C 4.390625 0.25 3.125 -0.175781 2.1875 -1.03125 C 1.257812 -1.894531 0.796875 -3.082031 0.796875 -4.59375 C 0.796875 -5.570312 1.019531 -6.429688 1.46875 -7.171875 C 1.925781 -7.910156 2.523438 -8.46875 3.265625 -8.84375 C 4.015625 -9.226562 4.816406 -9.421875 5.671875 -9.421875 C 7.191406 -9.421875 8.429688 -9.019531 9.390625 -8.21875 L 7.953125 -6.328125 C 7.359375 -6.796875 6.6875 -7.03125 5.9375 -7.03125 C 5.320312 -7.03125 4.800781 -6.800781 4.375 -6.34375 C 3.945312 -5.882812 3.734375 -5.300781 3.734375 -4.59375 C 3.734375 -3.894531 3.960938 -3.3125 4.421875 -2.84375 C 4.890625 -2.375 5.492188 -2.140625 6.234375 -2.140625 C 6.878906 -2.140625 7.410156 -2.316406 7.828125 -2.671875 Z M 9.296875 -0.8125 "/></g></g></g><g fill="#ffffff" fill-opacity="1"><g transform="translate(151.812998, 163.698022)"><g><path d="M 4.453125 -16.5625 L 4.453125 0 L 1.515625 0 L 1.515625 -16.5625 Z M 4.453125 -16.5625 "/></g></g></g><g fill="#ffffff" fill-opacity="1"><g transform="translate(157.777031, 163.698022)"><g><path d="M 6.09375 -2.25 C 6.675781 -2.25 7.285156 -2.453125 7.921875 -2.859375 L 9.21875 -0.671875 C 8.71875 -0.390625 8.1875 -0.164062 7.625 0 C 7.0625 0.164062 6.53125 0.25 6.03125 0.25 C 4.9375 0.25 3.992188 0.046875 3.203125 -0.359375 C 2.410156 -0.773438 1.8125 -1.359375 1.40625 -2.109375 C 1 -2.859375 0.796875 -3.71875 0.796875 -4.6875 C 0.796875 -5.582031 1.03125 -6.40625 1.5 -7.15625 C 1.96875 -7.914062 2.609375 -8.515625 3.421875 -8.953125 C 4.234375 -9.398438 5.125 -9.625 6.09375 -9.625 C 7.40625 -9.625 8.484375 -9.238281 9.328125 -8.46875 C 10.179688 -7.695312 10.734375 -6.597656 10.984375 -5.171875 L 4.265625 -3.03125 C 4.710938 -2.507812 5.320312 -2.25 6.09375 -2.25 Z M 5.859375 -7.328125 C 5.203125 -7.328125 4.675781 -7.101562 4.28125 -6.65625 C 3.894531 -6.207031 3.703125 -5.601562 3.703125 -4.84375 L 3.703125 -4.65625 L 7.734375 -6.03125 C 7.429688 -6.894531 6.804688 -7.328125 5.859375 -7.328125 Z M 5.859375 -7.328125 "/></g></g></g><g fill="#ffffff" fill-opacity="1"><g transform="translate(125.042662, 184.406377)"><g><path d="M 2.8125 -10.125 L 2.8125 0 L 1.453125 0 L 1.453125 -10.125 Z M 2.8125 -10.125 "/></g></g></g><g fill="#ffffff" fill-opacity="1"><g transform="translate(129.312691, 184.406377)"><g><path d="M 7.4375 -10.125 L 7.4375 -8.8125 L 4.71875 -8.8125 L 4.71875 0 L 3.359375 0 L 3.359375 -8.8125 L 0.71875 -8.8125 L 0.71875 -10.125 Z M 7.4375 -10.125 "/></g></g></g></svg>